<svg id="Solid" height="512" viewBox="0 0 512 512" width="512" xmlns="http://www.w3.org/2000/svg"><path d="m224 440v-307.293l-65.442-36.356-39.764 6.627a55.825 55.825 0 0 0 -46.794 55.238v321.784h56v-288a8 8 0 0 1 16 0v248zm-56.992-127.938a8 8 0 0 1 8.93 6.946l8 64a8 8 0 0 1 -6.946 8.93 8.084 8.084 0 0 1 -1 .063 8 8 0 0 1 -7.928-7.009l-8-64a8 8 0 0 1 6.944-8.93z"/><path d="m169.25 83.987 53.087 29.493-5.877-52.892-35.452-23.634z"/><path d="m280.049 55.117a8 8 0 0 1 2.951-5.364l22.193-17.753h-102.771l26.015 17.344a8 8 0 0 1 3.514 5.773l2.765 24.883h42.568z"/><path d="m275.506 96h-39.012l2.892 26.029 35.032 11.677a7.985 7.985 0 0 1 -2.369-6.589z"/><path d="m272 440v-290.234l-32-10.666v300.9z"/><path d="m384 480h56v-321.784a55.825 55.825 0 0 0 -46.794-55.238l-39.765-6.627-69.556 38.642a7.974 7.974 0 0 1 -2.815.931l1.46.487a8 8 0 0 1 5.47 7.589v296h80v-248a8 8 0 0 1 16 0zm-32.062-159.008-8 64a8 8 0 0 1 -7.928 7.008 8.1 8.1 0 0 1 -1-.063 8 8 0 0 1 -6.946-8.93l8-64a8 8 0 1 1 15.876 1.984z"/><path d="m324.383 37.139-28.798 23.038-5.923 53.303 52.427-29.126z"/></svg>